<svg width="116" height="78" viewBox="0 0 116 78" fill="none" xmlns="http://www.w3.org/2000/svg">
<g filter="url(#filter0_dd_493_3286)">
<rect x="24" y="12" width="68" height="30" rx="15" fill="#62B58F"/>
<path d="M46.3297 30.4219H51.4937V32H44.3531V20.625H46.3297V30.4219ZM54.9953 32H53.0969V23.5469H54.9953V32ZM52.9797 21.3516C52.9797 21.0599 53.0708 20.8177 53.2531 20.625C53.4406 20.4323 53.7062 20.3359 54.05 20.3359C54.3937 20.3359 54.6594 20.4323 54.8469 20.625C55.0344 20.8177 55.1281 21.0599 55.1281 21.3516C55.1281 21.638 55.0344 21.8776 54.8469 22.0703C54.6594 22.2578 54.3937 22.3516 54.05 22.3516C53.7062 22.3516 53.4406 22.2578 53.2531 22.0703C53.0708 21.8776 52.9797 21.638 52.9797 21.3516ZM60.2 29.5938L61.9891 23.5469H63.95L61.0203 32H59.3719L56.4187 23.5469H58.3875L60.2 29.5938ZM68.9047 32.1562C67.7016 32.1562 66.725 31.7786 65.975 31.0234C65.2302 30.263 64.8578 29.2526 64.8578 27.9922V27.7578C64.8578 26.9141 65.0193 26.1615 65.3422 25.5C65.6703 24.8333 66.1286 24.3151 66.7172 23.9453C67.3057 23.5755 67.962 23.3906 68.6859 23.3906C69.837 23.3906 70.725 23.7578 71.35 24.4922C71.9802 25.2266 72.2953 26.2656 72.2953 27.6094V28.375H66.7719C66.8292 29.0729 67.0609 29.625 67.4672 30.0312C67.8786 30.4375 68.3943 30.6406 69.0141 30.6406C69.8839 30.6406 70.5922 30.2891 71.1391 29.5859L72.1625 30.5625C71.824 31.0677 71.3708 31.4609 70.8031 31.7422C70.2406 32.0182 69.6078 32.1562 68.9047 32.1562ZM68.6781 24.9141C68.1573 24.9141 67.7354 25.0964 67.4125 25.4609C67.0948 25.8255 66.8917 26.3333 66.8031 26.9844H70.4203V26.8438C70.3786 26.2083 70.2094 25.7292 69.9125 25.4062C69.6156 25.0781 69.2042 24.9141 68.6781 24.9141Z" fill="white"/>
</g>
<defs>
<filter id="filter0_dd_493_3286" x="0" y="0" width="116" height="78" filterUnits="userSpaceOnUse" color-interpolation-filters="sRGB">
<feFlood flood-opacity="0" result="BackgroundImageFix"/>
<feColorMatrix in="SourceAlpha" type="matrix" values="0 0 0 0 0 0 0 0 0 0 0 0 0 0 0 0 0 0 127 0" result="hardAlpha"/>
<feOffset dy="12"/>
<feGaussianBlur stdDeviation="12"/>
<feColorMatrix type="matrix" values="0 0 0 0 0.14902 0 0 0 0 0.14902 0 0 0 0 0.14902 0 0 0 0.2 0"/>
<feBlend mode="multiply" in2="BackgroundImageFix" result="effect1_dropShadow_493_3286"/>
<feColorMatrix in="SourceAlpha" type="matrix" values="0 0 0 0 0 0 0 0 0 0 0 0 0 0 0 0 0 0 127 0" result="hardAlpha"/>
<feOffset dy="6"/>
<feGaussianBlur stdDeviation="6"/>
<feColorMatrix type="matrix" values="0 0 0 0 0.14902 0 0 0 0 0.14902 0 0 0 0 0.14902 0 0 0 0.24 0"/>
<feBlend mode="multiply" in2="effect1_dropShadow_493_3286" result="effect2_dropShadow_493_3286"/>
<feBlend mode="normal" in="SourceGraphic" in2="effect2_dropShadow_493_3286" result="shape"/>
</filter>
</defs>
</svg>
